<svg id="svg" version="1.1" xmlns="http://www.w3.org/2000/svg" xmlns:xlink="http://www.w3.org/1999/xlink" width="400" height="85.71428571428571" viewBox="0, 0, 400,85.71428571428571"><g id="svgg"><path id="path0" d="M105.667 23.077 C 105.667 23.475,105.628 23.488,104.292 23.535 C 102.929 23.583,102.916 23.588,102.864 24.042 C 102.814 24.479,102.770 24.500,101.906 24.500 C 101.057 24.500,101.000 24.526,101.000 24.906 C 101.000 25.224,100.902 25.323,100.542 25.364 C 100.182 25.405,100.072 25.515,100.031 25.875 C 99.989 26.235,99.891 26.333,99.572 26.333 C 99.251 26.333,99.167 26.420,99.167 26.750 C 99.167 27.040,99.076 27.167,98.867 27.167 C 98.387 27.167,98.167 27.515,98.167 28.272 C 98.167 28.876,98.113 28.984,97.792 29.030 L 97.417 29.083 97.417 33.167 L 97.417 37.250 97.792 37.303 C 98.106 37.348,98.167 37.460,98.167 37.998 C 98.167 38.894,98.307 39.167,98.768 39.167 C 99.082 39.167,99.167 39.255,99.167 39.583 C 99.167 39.911,99.251 40.000,99.563 40.000 C 99.869 40.000,99.981 40.113,100.058 40.500 C 100.154 40.976,100.199 41.000,100.996 41.000 C 101.778 41.000,101.833 41.028,101.833 41.417 C 101.833 41.810,101.884 41.833,102.739 41.833 C 103.603 41.833,103.647 41.854,103.697 42.292 C 103.749 42.745,103.763 42.750,105.115 42.798 C 106.461 42.846,106.480 42.853,106.531 43.298 C 106.583 43.744,106.601 43.751,107.958 43.798 C 109.295 43.845,109.333 43.858,109.333 44.257 C 109.333 44.658,109.362 44.667,110.656 44.667 C 111.974 44.667,111.978 44.668,112.031 45.125 C 112.080 45.551,112.144 45.587,112.942 45.633 C 113.696 45.677,113.814 45.733,113.904 46.091 C 113.995 46.456,114.095 46.500,114.825 46.500 C 115.595 46.500,115.648 46.528,115.697 46.958 C 115.738 47.315,115.849 47.428,116.198 47.468 C 116.512 47.505,116.662 47.630,116.698 47.885 C 116.730 48.113,116.887 48.270,117.115 48.302 C 117.370 48.338,117.495 48.488,117.532 48.802 C 117.572 49.151,117.685 49.262,118.042 49.303 L 118.500 49.355 118.500 51.667 L 118.500 53.978 118.042 54.031 C 117.720 54.068,117.568 54.191,117.532 54.443 C 117.501 54.661,117.322 54.842,117.074 54.904 C 116.783 54.977,116.667 55.121,116.667 55.409 C 116.667 55.724,116.567 55.823,116.208 55.864 C 115.884 55.901,115.735 56.024,115.698 56.283 C 115.653 56.599,115.526 56.657,114.781 56.700 C 113.976 56.747,113.913 56.782,113.864 57.208 L 113.811 57.667 109.674 57.667 L 105.536 57.667 105.437 57.271 C 105.327 56.834,104.808 56.667,103.562 56.667 C 102.896 56.667,102.833 56.631,102.833 56.250 C 102.833 55.902,102.754 55.833,102.351 55.833 C 101.980 55.833,101.846 55.740,101.768 55.428 C 101.705 55.179,101.525 55.003,101.298 54.970 C 101.066 54.936,100.894 54.763,100.833 54.500 C 100.675 53.826,98.276 53.855,98.198 54.531 C 98.162 54.845,98.037 54.995,97.782 55.031 C 96.994 55.144,97.214 58.500,98.009 58.500 C 98.194 58.500,98.331 58.644,98.363 58.875 C 98.409 59.194,98.533 59.257,99.198 59.300 C 99.908 59.346,99.984 59.392,100.031 59.800 C 100.080 60.217,100.147 60.254,100.958 60.300 C 101.566 60.335,101.833 60.421,101.833 60.580 C 101.833 61.198,102.300 61.333,104.429 61.333 L 106.500 61.333 106.500 61.750 L 106.500 62.167 109.667 62.167 L 112.833 62.167 112.833 61.755 C 112.833 61.345,112.839 61.344,114.708 61.297 L 116.583 61.250 116.635 60.800 C 116.683 60.383,116.751 60.346,117.552 60.300 C 118.353 60.254,118.421 60.217,118.469 59.800 C 118.517 59.383,118.584 59.346,119.385 59.300 C 120.129 59.257,120.257 59.199,120.302 58.885 C 120.334 58.658,120.491 58.501,120.719 58.469 C 120.976 58.432,121.099 58.282,121.136 57.958 C 121.177 57.605,121.277 57.500,121.577 57.500 C 122.028 57.500,122.167 57.223,122.167 56.320 C 122.167 55.733,122.209 55.667,122.586 55.667 L 123.005 55.667 122.961 51.208 C 122.917 46.764,122.916 46.750,122.552 46.698 C 122.296 46.662,122.171 46.512,122.135 46.198 C 122.095 45.849,121.982 45.738,121.625 45.697 C 121.241 45.653,121.167 45.565,121.167 45.156 C 121.167 44.745,121.100 44.667,120.750 44.667 C 120.417 44.667,120.333 44.583,120.333 44.250 C 120.333 43.900,120.255 43.833,119.844 43.833 C 119.435 43.833,119.347 43.759,119.303 43.375 C 119.261 43.015,119.152 42.905,118.792 42.864 C 118.478 42.828,118.333 42.715,118.333 42.507 C 118.333 42.102,118.014 42.000,116.747 42.000 C 115.716 42.000,115.687 41.988,115.636 41.542 C 115.587 41.115,115.524 41.080,114.719 41.033 C 113.974 40.990,113.847 40.933,113.802 40.617 C 113.754 40.278,113.647 40.246,112.386 40.202 C 111.131 40.157,111.017 40.125,110.969 39.792 C 110.902 39.328,110.441 39.204,108.708 39.183 C 107.357 39.167,107.333 39.159,107.333 38.750 C 107.333 38.356,107.283 38.333,106.417 38.333 C 105.561 38.333,105.500 38.307,105.500 37.934 C 105.500 37.472,105.228 37.333,104.320 37.333 C 103.734 37.333,103.667 37.290,103.667 36.917 C 103.667 36.592,103.581 36.500,103.280 36.500 C 102.945 36.500,102.874 36.384,102.739 35.625 C 102.610 34.902,102.518 34.741,102.208 34.697 C 101.600 34.610,101.623 30.833,102.232 30.833 C 102.695 30.833,102.833 30.561,102.833 29.653 C 102.833 29.021,102.851 29.000,103.403 29.000 C 104.183 29.000,104.500 28.853,104.500 28.493 C 104.500 28.285,104.645 28.172,104.958 28.136 C 105.318 28.095,105.428 27.985,105.469 27.625 L 105.522 27.167 107.344 27.167 L 109.167 27.167 109.167 26.750 C 109.167 26.385,109.239 26.333,109.750 26.333 C 110.211 26.333,110.333 26.399,110.333 26.649 C 110.333 27.104,110.634 27.167,112.836 27.167 L 114.811 27.167 114.864 27.625 C 114.913 28.052,114.976 28.087,115.792 28.134 C 116.595 28.180,116.667 28.217,116.667 28.592 C 116.667 28.916,116.752 29.000,117.083 29.000 C 117.373 29.000,117.500 29.091,117.500 29.300 C 117.500 29.680,117.815 30.000,118.188 30.000 C 118.361 30.000,118.498 30.151,118.530 30.375 C 118.617 30.985,120.111 31.028,120.263 30.426 C 120.340 30.118,120.480 30.000,120.768 30.000 C 121.098 30.000,121.167 29.916,121.167 29.511 C 121.167 29.102,121.241 29.014,121.625 28.969 C 122.077 28.917,122.083 28.900,122.069 27.777 C 122.054 26.496,121.935 26.340,120.969 26.336 C 120.424 26.334,120.350 26.282,120.303 25.875 C 120.261 25.515,120.152 25.405,119.792 25.364 C 119.432 25.323,119.333 25.224,119.333 24.906 C 119.333 24.526,119.276 24.500,118.428 24.500 C 117.564 24.500,117.520 24.479,117.469 24.042 C 117.417 23.588,117.404 23.583,116.042 23.535 C 114.705 23.488,114.667 23.475,114.667 23.077 L 114.667 22.667 110.167 22.667 L 105.667 22.667 105.667 23.077 M239.444 22.778 C 239.383 22.839,239.333 23.026,239.333 23.194 C 239.333 23.461,239.187 23.500,238.180 23.500 C 236.760 23.500,236.500 23.593,236.500 24.101 C 236.500 24.473,236.439 24.500,235.583 24.500 C 234.723 24.500,234.667 24.525,234.667 24.906 C 234.667 25.224,234.568 25.323,234.208 25.364 C 233.848 25.405,233.739 25.515,233.697 25.875 C 233.656 26.235,233.558 26.333,233.239 26.333 C 232.917 26.333,232.833 26.420,232.833 26.750 C 232.833 27.102,232.756 27.167,232.333 27.167 C 231.889 27.167,231.833 27.222,231.833 27.667 C 231.833 28.089,231.769 28.167,231.417 28.167 C 231.023 28.167,231.000 28.217,231.000 29.072 C 231.000 29.936,230.979 29.980,230.542 30.031 L 230.083 30.083 230.039 34.625 L 229.995 39.167 230.497 39.167 C 230.996 39.167,231.000 39.175,231.000 40.083 C 231.000 40.950,231.023 41.000,231.417 41.000 C 231.750 41.000,231.833 41.083,231.833 41.417 C 231.833 41.769,231.911 41.833,232.333 41.833 C 232.778 41.833,232.833 41.889,232.833 42.333 C 232.833 42.828,232.843 42.833,233.750 42.833 C 234.657 42.833,234.667 42.838,234.667 43.333 C 234.667 43.778,234.722 43.833,235.167 43.833 C 235.546 43.833,235.667 43.909,235.667 44.149 C 235.667 44.565,235.979 44.667,237.264 44.667 C 238.281 44.667,238.333 44.686,238.333 45.066 C 238.333 45.596,238.580 45.667,240.430 45.667 C 241.994 45.667,242.000 45.668,242.000 46.083 C 242.000 46.495,242.017 46.500,243.406 46.500 L 244.811 46.500 244.864 46.958 C 244.913 47.383,244.979 47.420,245.755 47.466 C 246.434 47.506,246.625 47.585,246.755 47.882 C 246.883 48.173,247.080 48.260,247.698 48.300 C 248.408 48.346,248.484 48.392,248.531 48.800 C 248.568 49.120,248.692 49.265,248.958 49.303 C 249.273 49.348,249.333 49.460,249.333 50.000 C 249.333 50.353,249.444 50.753,249.579 50.889 C 249.796 51.105,249.796 51.145,249.579 51.229 C 249.444 51.280,249.333 51.508,249.333 51.733 C 249.333 52.032,249.231 52.158,248.958 52.197 C 248.717 52.231,248.564 52.384,248.530 52.625 C 248.489 52.916,248.368 53.000,247.988 53.000 C 247.557 53.000,247.500 53.058,247.500 53.500 L 247.500 54.000 243.344 54.000 L 239.189 54.000 239.136 53.542 C 239.087 53.115,239.024 53.080,238.219 53.033 C 237.474 52.990,237.347 52.933,237.302 52.617 C 237.257 52.300,237.131 52.243,236.375 52.200 C 235.529 52.151,235.500 52.133,235.500 51.658 L 235.500 51.167 234.167 51.167 L 232.833 51.167 232.833 51.667 C 232.833 52.111,232.778 52.167,232.333 52.167 C 231.925 52.167,231.833 52.236,231.833 52.544 C 231.833 52.775,231.688 52.985,231.458 53.085 C 231.160 53.216,231.073 53.408,231.033 54.023 C 230.988 54.729,230.941 54.803,230.492 54.893 L 230.000 54.992 230.000 56.246 L 230.000 57.500 230.500 57.500 C 230.944 57.500,231.000 57.556,231.000 58.000 C 231.000 58.495,231.009 58.500,231.917 58.500 C 232.777 58.500,232.833 58.525,232.833 58.906 C 232.833 59.224,232.932 59.323,233.290 59.364 C 233.591 59.399,233.768 59.531,233.810 59.750 C 233.902 60.242,234.133 60.328,235.375 60.331 C 236.450 60.333,236.500 60.351,236.500 60.732 C 236.500 61.261,236.748 61.333,238.557 61.333 C 239.984 61.333,240.099 61.359,240.252 61.708 C 240.414 62.078,240.469 62.084,243.871 62.128 L 247.325 62.173 247.429 61.759 C 247.531 61.354,247.573 61.343,249.308 61.297 L 251.083 61.250 251.135 60.799 C 251.186 60.360,251.221 60.346,252.384 60.299 C 253.504 60.253,253.594 60.221,253.799 59.792 C 253.950 59.476,254.145 59.333,254.426 59.333 C 254.749 59.333,254.833 59.248,254.833 58.917 C 254.833 58.565,254.911 58.500,255.333 58.500 C 255.778 58.500,255.833 58.444,255.833 58.000 C 255.833 57.578,255.898 57.500,256.250 57.500 C 256.580 57.500,256.667 57.416,256.667 57.094 C 256.667 56.776,256.765 56.677,257.125 56.636 C 257.552 56.587,257.587 56.524,257.634 55.708 C 257.680 54.905,257.717 54.833,258.092 54.833 L 258.500 54.833 258.500 50.250 L 258.500 45.667 258.083 45.667 C 257.710 45.667,257.667 45.599,257.667 45.014 C 257.667 44.110,257.528 43.833,257.077 43.833 C 256.777 43.833,256.677 43.729,256.636 43.375 C 256.599 43.051,256.476 42.901,256.219 42.865 C 255.991 42.832,255.834 42.675,255.802 42.448 C 255.765 42.190,255.615 42.068,255.292 42.031 C 254.938 41.990,254.833 41.889,254.833 41.590 C 254.833 41.138,254.556 41.000,253.653 41.000 C 253.068 41.000,253.000 40.957,253.000 40.583 C 253.000 40.190,252.949 40.167,252.094 40.167 C 251.230 40.167,251.186 40.146,251.136 39.708 C 251.087 39.284,251.021 39.246,250.245 39.201 C 249.566 39.161,249.375 39.082,249.245 38.784 C 249.096 38.445,248.954 38.413,247.375 38.369 C 245.872 38.327,245.667 38.286,245.667 38.028 C 245.667 37.491,245.303 37.333,244.062 37.333 C 242.939 37.333,242.853 37.308,242.803 36.958 C 242.757 36.632,242.637 36.577,241.885 36.533 C 241.084 36.487,241.017 36.450,240.969 36.033 C 240.920 35.616,240.854 35.580,240.042 35.533 L 239.167 35.483 239.167 33.679 L 239.167 31.876 239.998 31.766 C 240.700 31.673,240.846 31.591,240.933 31.244 C 241.029 30.862,241.109 30.833,242.088 30.833 C 243.355 30.833,243.667 30.731,243.667 30.316 C 243.667 29.825,244.699 29.874,244.919 30.375 C 245.072 30.724,245.203 30.753,246.781 30.797 C 248.390 30.842,248.481 30.864,248.531 31.214 C 248.574 31.517,248.740 31.611,249.447 31.737 C 250.149 31.862,250.330 31.964,250.409 32.279 C 250.494 32.619,250.607 32.667,251.325 32.667 C 252.095 32.667,252.148 32.694,252.197 33.125 C 252.249 33.577,252.266 33.583,253.390 33.569 C 254.671 33.554,254.827 33.435,254.831 32.469 C 254.833 31.924,254.885 31.850,255.292 31.803 C 255.719 31.754,255.753 31.691,255.800 30.875 C 255.847 30.071,255.884 30.000,256.259 30.000 C 256.601 30.000,256.667 29.919,256.667 29.500 C 256.667 29.079,256.732 29.000,257.080 29.000 C 257.866 29.000,257.867 27.432,257.081 27.234 C 256.784 27.160,256.667 27.017,256.667 26.732 C 256.667 26.421,256.578 26.333,256.261 26.333 C 255.942 26.333,255.844 26.235,255.803 25.875 C 255.754 25.448,255.691 25.413,254.875 25.366 C 254.071 25.320,254.000 25.283,254.000 24.908 C 254.000 24.521,253.949 24.500,253.011 24.500 C 252.056 24.500,252.020 24.484,251.969 24.042 L 251.917 23.583 250.125 23.536 C 248.344 23.489,248.333 23.486,248.333 23.078 L 248.333 22.667 243.944 22.667 C 241.531 22.667,239.506 22.717,239.444 22.778 M170.667 25.482 L 170.250 25.598 170.250 28.174 L 170.250 30.750 172.875 30.796 L 175.500 30.842 175.500 28.189 C 175.500 25.923,175.461 25.521,175.236 25.434 C 174.881 25.298,171.190 25.337,170.667 25.482 M213.500 30.000 L 213.500 33.667 211.167 33.667 L 208.833 33.667 208.833 35.500 L 208.833 37.333 211.167 37.333 L 213.500 37.333 213.500 47.417 L 213.500 57.500 213.917 57.500 C 214.311 57.500,214.333 57.550,214.333 58.417 C 214.333 59.324,214.338 59.333,214.833 59.333 C 215.278 59.333,215.333 59.389,215.333 59.833 C 215.333 60.256,215.398 60.333,215.750 60.333 C 216.078 60.333,216.167 60.418,216.167 60.732 C 216.167 61.240,216.427 61.333,217.847 61.333 C 218.969 61.333,219.000 61.345,219.000 61.754 L 219.000 62.175 221.708 62.129 C 224.374 62.084,224.418 62.077,224.470 61.708 C 224.521 61.350,224.592 61.333,226.083 61.333 C 228.161 61.333,228.167 61.327,228.167 59.000 C 228.167 57.037,228.021 56.667,227.252 56.667 C 226.608 56.667,226.333 56.846,226.333 57.268 L 226.333 57.667 223.083 57.667 L 219.833 57.667 219.833 57.263 C 219.833 56.951,219.721 56.835,219.333 56.750 C 218.946 56.665,218.833 56.549,218.833 56.237 C 218.833 55.918,218.746 55.833,218.417 55.833 L 218.000 55.833 218.000 46.583 L 218.000 37.333 222.583 37.333 L 227.167 37.333 227.167 35.500 L 227.167 33.667 222.583 33.667 L 218.000 33.667 218.000 30.264 C 218.000 25.919,218.248 26.333,215.649 26.333 L 213.500 26.333 213.500 30.000 M269.667 33.247 C 269.667 33.645,269.618 33.667,268.750 33.667 C 267.843 33.667,267.833 33.672,267.833 34.167 C 267.833 34.662,267.824 34.667,266.917 34.667 C 266.057 34.667,266.000 34.692,266.000 35.072 C 266.000 35.391,265.902 35.489,265.542 35.531 C 265.182 35.572,265.072 35.682,265.031 36.042 C 264.989 36.402,264.891 36.500,264.572 36.500 C 264.254 36.500,264.167 36.587,264.167 36.906 C 264.167 37.224,264.068 37.323,263.708 37.364 C 263.351 37.405,263.239 37.516,263.198 37.865 C 263.162 38.178,263.037 38.328,262.782 38.365 C 262.467 38.410,262.410 38.537,262.366 39.292 C 262.326 39.994,262.259 40.167,262.025 40.167 C 261.430 40.167,261.333 40.509,261.333 42.605 C 261.333 44.592,261.324 44.645,260.958 44.697 C 260.270 44.794,260.309 50.167,260.998 50.167 C 261.296 50.167,261.326 50.310,261.369 51.958 L 261.417 53.750 261.875 53.803 C 262.312 53.853,262.333 53.897,262.333 54.761 C 262.333 55.616,262.357 55.667,262.750 55.667 C 263.130 55.667,263.167 55.730,263.167 56.383 C 263.167 57.151,263.385 57.500,263.867 57.500 C 264.044 57.500,264.167 57.622,264.167 57.800 C 264.167 58.180,264.482 58.500,264.855 58.500 C 265.027 58.500,265.165 58.651,265.197 58.875 C 265.242 59.194,265.366 59.257,266.031 59.300 C 266.741 59.346,266.818 59.392,266.865 59.800 C 266.913 60.217,266.981 60.254,267.781 60.300 C 268.582 60.346,268.650 60.383,268.698 60.800 C 268.749 61.243,268.770 61.251,270.114 61.298 C 271.378 61.343,271.482 61.374,271.531 61.715 C 271.614 62.300,276.887 62.294,276.970 61.708 C 277.020 61.359,277.105 61.333,278.241 61.333 C 279.980 61.333,280.484 61.204,280.604 60.729 C 280.673 60.451,280.821 60.333,281.101 60.333 C 281.433 60.333,281.500 60.250,281.500 59.833 C 281.500 59.389,281.556 59.333,282.000 59.333 L 282.500 59.333 282.500 65.836 L 282.500 72.339 286.625 72.295 L 290.750 72.250 290.796 52.917 C 290.821 42.283,290.800 33.413,290.750 33.205 L 290.659 32.827 286.621 32.872 L 282.583 32.917 282.533 33.792 C 282.481 34.701,281.500 35.247,281.500 34.367 C 281.500 33.833,281.138 33.667,279.978 33.667 C 278.942 33.667,278.852 33.638,278.803 33.292 L 278.750 32.917 274.208 32.872 L 269.667 32.828 269.667 33.247 M295.500 44.247 L 295.500 55.667 295.908 55.667 C 296.283 55.667,296.320 55.738,296.366 56.542 C 296.413 57.358,296.448 57.420,296.875 57.469 C 297.259 57.514,297.333 57.602,297.333 58.011 C 297.333 58.421,297.400 58.500,297.750 58.500 C 298.083 58.500,298.167 58.583,298.167 58.917 C 298.167 59.269,298.244 59.333,298.667 59.333 C 299.111 59.333,299.167 59.389,299.167 59.833 C 299.167 60.278,299.222 60.333,299.667 60.333 C 300.082 60.333,300.167 60.401,300.167 60.728 C 300.167 61.158,300.706 61.328,302.085 61.331 C 302.618 61.333,302.788 61.410,302.919 61.708 C 303.081 62.077,303.132 62.083,306.083 62.083 C 309.068 62.083,309.084 62.081,309.137 61.708 C 309.185 61.366,309.279 61.333,310.220 61.331 C 311.655 61.328,312.000 61.212,312.000 60.731 C 312.000 60.372,312.071 60.333,312.740 60.333 C 313.149 60.333,313.541 60.240,313.615 60.125 C 313.700 59.993,313.781 60.162,313.833 60.583 L 313.917 61.250 317.812 61.295 C 320.546 61.326,321.777 61.283,321.937 61.149 C 322.185 60.944,322.262 34.213,322.018 33.333 L 321.902 32.917 317.492 32.917 L 313.083 32.917 313.040 42.542 L 312.997 52.167 312.499 52.167 C 312.078 52.167,312.000 52.232,312.000 52.583 C 312.000 52.917,311.917 53.000,311.583 53.000 C 311.231 53.000,311.167 53.077,311.167 53.505 L 311.167 54.009 308.794 53.963 C 306.572 53.920,306.417 53.895,306.358 53.583 C 306.273 53.135,306.035 53.006,305.292 53.003 C 304.699 53.000,304.667 52.972,304.664 52.458 C 304.660 51.519,304.497 51.167,304.065 51.167 L 303.670 51.167 303.626 42.042 L 303.583 32.917 299.542 32.872 L 295.500 32.827 295.500 44.247 M331.613 32.942 C 331.551 33.005,331.500 33.189,331.500 33.353 C 331.500 33.598,331.331 33.659,330.542 33.700 C 329.639 33.747,329.580 33.776,329.531 34.200 C 329.483 34.617,329.416 34.654,328.615 34.700 C 327.863 34.743,327.743 34.799,327.697 35.125 C 327.653 35.436,327.538 35.500,327.030 35.503 C 326.180 35.506,326.018 35.654,325.897 36.539 C 325.745 37.650,325.911 38.167,326.420 38.167 C 326.768 38.167,326.833 38.245,326.833 38.667 C 326.833 39.082,326.901 39.167,327.229 39.167 C 327.577 39.167,327.637 39.265,327.734 39.998 C 327.827 40.700,327.909 40.846,328.256 40.933 C 328.549 41.007,328.667 41.150,328.667 41.435 C 328.667 41.822,328.705 41.833,330.000 41.833 C 331.311 41.833,331.333 41.826,331.333 41.417 C 331.333 41.037,331.397 41.000,332.050 41.000 C 332.818 41.000,333.167 40.781,333.167 40.300 C 333.167 40.023,333.383 40.000,336.000 40.000 C 338.617 40.000,338.833 40.023,338.833 40.300 C 338.833 40.780,339.182 41.000,339.941 41.000 L 340.649 41.000 340.700 41.875 C 340.744 42.637,340.798 42.757,341.125 42.803 C 341.416 42.845,341.500 42.965,341.500 43.343 L 341.500 43.829 336.042 43.873 L 330.583 43.917 330.531 44.283 C 330.486 44.599,330.360 44.657,329.615 44.700 C 328.814 44.746,328.746 44.783,328.698 45.200 C 328.651 45.608,328.575 45.654,327.866 45.700 C 327.203 45.742,327.053 45.819,326.867 46.208 C 326.744 46.467,326.513 46.667,326.336 46.667 C 326.083 46.667,326.002 46.839,325.909 47.583 C 325.807 48.406,325.754 48.500,325.397 48.500 L 325.000 48.500 325.000 53.000 L 325.000 57.500 325.417 57.500 C 325.769 57.500,325.833 57.578,325.833 58.000 C 325.833 58.444,325.889 58.500,326.333 58.500 C 326.756 58.500,326.833 58.565,326.833 58.917 C 326.833 59.250,326.917 59.333,327.250 59.333 C 327.602 59.333,327.667 59.411,327.667 59.833 C 327.667 60.278,327.722 60.333,328.167 60.333 C 328.583 60.333,328.667 60.400,328.667 60.732 C 328.667 61.240,328.927 61.333,330.347 61.333 C 331.367 61.333,331.500 61.370,331.500 61.649 C 331.500 62.115,331.793 62.167,334.430 62.167 L 336.833 62.167 336.833 61.757 C 336.833 61.358,336.872 61.345,338.208 61.298 C 339.559 61.251,339.584 61.242,339.635 60.807 C 339.706 60.188,341.501 59.994,341.500 60.605 C 341.500 61.301,341.760 61.342,345.854 61.295 L 349.750 61.250 349.793 50.361 C 349.837 39.064,349.808 38.452,349.209 38.365 C 348.964 38.329,348.837 38.174,348.802 37.865 C 348.766 37.556,348.640 37.401,348.395 37.366 C 348.107 37.325,348.020 37.163,347.933 36.508 C 347.815 35.616,347.667 35.500,346.653 35.500 C 346.068 35.500,346.000 35.457,346.000 35.083 C 346.000 34.753,345.916 34.667,345.594 34.667 C 345.276 34.667,345.177 34.568,345.136 34.208 C 345.087 33.784,345.021 33.746,344.245 33.701 C 343.566 33.661,343.375 33.582,343.245 33.284 C 343.083 32.915,331.967 32.588,331.613 32.942 M354.500 47.083 L 354.500 61.333 358.583 61.333 L 362.667 61.333 362.667 53.511 L 362.667 45.689 363.125 45.636 C 363.552 45.587,363.587 45.524,363.633 44.719 C 363.676 43.974,363.734 43.847,364.050 43.802 C 364.307 43.766,364.432 43.616,364.468 43.302 C 364.508 42.955,364.622 42.842,364.968 42.802 C 365.318 42.761,365.428 42.649,365.469 42.292 C 365.519 41.861,365.572 41.833,366.341 41.833 C 367.076 41.833,367.171 41.790,367.265 41.417 L 367.369 41.000 369.601 41.000 L 371.833 41.000 371.833 39.583 C 371.833 38.330,371.868 38.167,372.133 38.167 C 372.755 38.167,372.833 37.848,372.833 35.300 L 372.833 32.833 369.667 32.833 L 366.500 32.833 366.500 33.242 C 366.500 33.622,366.434 33.653,365.542 33.700 C 364.643 33.747,364.580 33.778,364.532 34.193 C 364.484 34.605,364.415 34.641,363.573 34.693 L 362.666 34.750 362.666 33.792 L 362.667 32.833 358.583 32.833 L 354.500 32.833 354.500 47.083 M381.369 33.031 C 381.258 33.142,381.167 33.331,381.167 33.450 C 381.167 33.602,380.891 33.667,380.250 33.667 C 379.346 33.667,379.333 33.674,379.333 34.158 C 379.333 34.625,379.295 34.651,378.542 34.699 C 377.907 34.740,377.717 34.825,377.585 35.125 C 377.484 35.357,377.275 35.500,377.040 35.500 C 376.749 35.500,376.634 35.619,376.558 36.000 C 376.482 36.382,376.368 36.500,376.074 36.500 C 375.778 36.500,375.677 36.606,375.636 36.958 C 375.599 37.285,375.477 37.432,375.213 37.469 C 374.906 37.513,374.823 37.662,374.734 38.335 C 374.646 38.996,374.560 39.158,374.271 39.199 C 373.971 39.242,373.904 39.390,373.833 40.167 C 373.762 40.953,373.698 41.091,373.384 41.135 C 372.856 41.211,372.811 41.788,372.867 47.750 L 372.917 52.917 373.368 52.969 C 373.811 53.020,373.821 53.047,373.868 54.302 C 373.913 55.476,373.947 55.588,374.282 55.635 C 374.537 55.672,374.662 55.822,374.698 56.135 C 374.739 56.484,374.851 56.595,375.208 56.636 C 375.568 56.677,375.667 56.776,375.667 57.094 C 375.667 57.416,375.753 57.500,376.083 57.500 C 376.435 57.500,376.500 57.578,376.500 58.000 C 376.500 58.444,376.556 58.500,377.000 58.500 C 377.422 58.500,377.500 58.565,377.500 58.917 C 377.500 59.244,377.585 59.333,377.896 59.333 C 378.202 59.333,378.314 59.446,378.392 59.833 C 378.487 60.309,378.532 60.333,379.329 60.333 C 379.944 60.333,380.167 60.397,380.167 60.571 C 380.167 61.165,380.647 61.333,382.345 61.333 L 384.000 61.333 384.000 61.754 L 384.000 62.174 387.125 62.129 C 390.223 62.084,390.250 62.080,390.303 61.708 C 390.353 61.359,390.438 61.333,391.574 61.333 C 393.313 61.333,393.818 61.204,393.937 60.729 C 394.022 60.391,394.139 60.333,394.735 60.333 C 395.480 60.333,395.833 60.112,395.833 59.644 C 395.833 59.453,395.988 59.338,396.292 59.303 C 396.620 59.265,396.765 59.144,396.803 58.875 C 396.842 58.604,396.968 58.500,397.262 58.500 C 397.601 58.500,397.667 58.418,397.667 58.000 C 397.667 57.556,397.722 57.500,398.167 57.500 C 398.589 57.500,398.667 57.435,398.667 57.083 C 398.667 56.750,398.750 56.667,399.083 56.667 C 399.493 56.667,399.500 56.644,399.500 55.333 L 399.500 54.000 398.583 54.000 C 397.676 54.000,397.667 53.995,397.667 53.500 C 397.667 53.005,397.657 53.000,396.750 53.000 C 395.880 53.000,395.833 52.978,395.833 52.578 L 395.833 52.157 393.708 52.203 C 391.686 52.248,391.575 52.268,391.419 52.625 C 391.320 52.849,391.108 53.000,390.890 53.000 C 390.622 53.000,390.498 53.131,390.417 53.500 C 390.313 53.973,390.262 54.000,389.490 54.000 C 388.758 54.000,388.662 54.043,388.568 54.417 C 388.465 54.829,388.446 54.833,386.649 54.833 L 384.833 54.833 384.833 54.417 C 384.833 54.067,384.755 54.000,384.344 54.000 C 383.935 54.000,383.847 53.926,383.803 53.542 C 383.765 53.218,383.643 53.068,383.385 53.031 C 383.158 52.999,383.001 52.842,382.969 52.615 C 382.932 52.357,382.782 52.235,382.458 52.197 C 382.016 52.146,382.000 52.111,382.000 51.156 L 382.000 50.167 391.000 50.167 L 400.000 50.167 400.000 45.583 C 400.000 41.620,399.966 41.000,399.750 41.000 C 399.558 41.000,399.500 40.787,399.500 40.083 C 399.500 39.217,399.477 39.167,399.083 39.167 C 398.703 39.167,398.667 39.103,398.667 38.450 C 398.667 37.682,398.448 37.333,397.967 37.333 C 397.758 37.333,397.667 37.207,397.667 36.917 C 397.667 36.586,397.583 36.500,397.261 36.500 C 396.942 36.500,396.844 36.402,396.803 36.042 C 396.761 35.682,396.652 35.572,396.292 35.531 C 395.932 35.489,395.833 35.391,395.833 35.072 C 395.833 34.692,395.777 34.667,394.917 34.667 C 394.009 34.667,394.000 34.662,394.000 34.167 C 394.000 33.674,393.986 33.667,393.123 33.667 C 392.373 33.667,392.222 33.612,392.081 33.292 L 391.917 32.917 386.744 32.873 C 382.860 32.840,381.521 32.879,381.369 33.031 M134.280 33.776 C 134.218 33.838,134.167 34.060,134.167 34.269 C 134.167 34.610,134.077 34.654,133.292 34.700 C 132.529 34.744,132.410 34.798,132.363 35.125 C 132.322 35.416,132.201 35.500,131.822 35.500 C 131.392 35.500,131.333 35.559,131.333 35.991 C 131.333 36.458,131.295 36.484,130.542 36.533 L 129.750 36.583 129.595 37.458 C 129.460 38.217,129.388 38.333,129.053 38.333 C 128.752 38.333,128.667 38.425,128.667 38.750 C 128.667 39.000,128.571 39.167,128.429 39.167 C 128.000 39.167,127.667 39.675,127.667 40.327 C 127.667 40.867,127.603 40.980,127.250 41.068 L 126.833 41.173 126.833 47.503 L 126.833 53.833 127.241 53.833 C 127.616 53.833,127.653 53.905,127.700 54.708 C 127.747 55.524,127.781 55.587,128.208 55.636 C 128.639 55.686,128.667 55.738,128.667 56.508 C 128.667 57.233,128.713 57.339,129.065 57.427 C 129.336 57.495,129.495 57.683,129.561 58.014 C 129.638 58.397,129.748 58.500,130.079 58.500 C 130.417 58.500,130.500 58.582,130.500 58.917 C 130.500 59.311,130.550 59.333,131.417 59.333 C 132.324 59.333,132.333 59.338,132.333 59.833 C 132.333 60.278,132.389 60.333,132.833 60.333 C 133.248 60.333,133.333 60.401,133.333 60.728 C 133.333 61.197,133.870 61.329,135.792 61.331 C 136.972 61.333,137.000 61.343,137.000 61.754 L 137.000 62.174 140.125 62.129 C 143.223 62.084,143.250 62.080,143.303 61.708 C 143.353 61.359,143.438 61.333,144.574 61.333 C 146.313 61.333,146.818 61.204,146.937 60.729 C 147.013 60.427,147.150 60.333,147.518 60.333 C 147.942 60.333,148.000 60.274,148.000 59.833 C 148.000 59.345,148.019 59.333,148.830 59.333 C 149.827 59.333,149.873 59.234,149.799 57.249 C 149.751 55.941,149.742 55.916,149.302 55.865 C 148.955 55.825,148.842 55.711,148.802 55.365 C 148.722 54.672,147.111 54.673,147.031 55.366 C 146.984 55.775,146.908 55.821,146.198 55.866 C 145.533 55.909,145.409 55.972,145.363 56.292 C 145.326 56.557,145.197 56.667,144.926 56.667 C 144.047 56.667,143.518 56.870,143.467 57.227 C 143.418 57.575,143.343 57.584,140.125 57.629 L 136.833 57.674 136.833 57.271 C 136.833 56.805,136.563 56.667,135.653 56.667 C 135.068 56.667,135.000 56.624,135.000 56.250 C 135.000 55.917,134.917 55.833,134.583 55.833 C 134.293 55.833,134.167 55.742,134.167 55.533 C 134.167 55.149,133.851 54.833,133.467 54.833 C 133.258 54.833,133.167 54.707,133.167 54.417 C 133.167 54.092,133.081 54.000,132.780 54.000 C 132.445 54.000,132.374 53.884,132.239 53.125 C 132.111 52.407,132.017 52.241,131.715 52.198 C 131.374 52.149,131.343 52.044,131.298 50.781 C 131.250 49.430,131.245 49.416,130.792 49.364 L 130.333 49.311 130.333 47.510 L 130.333 45.708 130.833 45.608 L 131.333 45.508 131.333 44.182 C 131.333 42.859,131.334 42.855,131.792 42.803 C 132.219 42.754,132.253 42.691,132.300 41.875 C 132.347 41.071,132.384 41.000,132.759 41.000 C 133.101 41.000,133.167 40.919,133.167 40.500 C 133.167 40.056,133.222 40.000,133.667 40.000 C 134.089 40.000,134.167 39.935,134.167 39.583 C 134.167 39.250,134.250 39.167,134.583 39.167 C 134.934 39.167,135.000 39.088,135.000 38.674 L 135.000 38.181 136.292 38.132 C 137.487 38.087,137.587 38.055,137.637 37.708 C 137.689 37.336,137.712 37.333,140.512 37.333 L 143.333 37.333 143.333 37.750 C 143.333 38.143,143.384 38.167,144.239 38.167 C 145.103 38.167,145.147 38.188,145.197 38.625 L 145.250 39.083 147.000 39.083 L 148.750 39.083 148.797 37.292 L 148.845 35.500 148.440 35.500 C 148.148 35.500,148.007 35.385,147.932 35.083 C 147.836 34.703,147.748 34.667,146.925 34.667 C 146.064 34.667,146.020 34.645,145.969 34.208 L 145.917 33.750 140.155 33.706 C 136.986 33.682,134.342 33.713,134.280 33.776 M153.500 47.500 L 153.500 61.333 155.333 61.333 L 157.167 61.333 157.167 53.012 L 157.167 44.690 157.542 44.637 C 157.891 44.587,157.920 44.490,157.965 43.219 C 158.012 41.873,158.019 41.854,158.465 41.802 C 158.885 41.754,158.920 41.688,158.967 40.875 C 159.013 40.071,159.051 40.000,159.425 40.000 C 159.749 40.000,159.833 39.914,159.833 39.583 C 159.833 39.193,159.888 39.167,160.681 39.167 C 161.467 39.167,161.542 39.131,161.715 38.674 C 161.883 38.229,161.982 38.177,162.742 38.133 C 163.470 38.090,163.591 38.033,163.637 37.708 C 163.688 37.344,163.744 37.333,165.665 37.333 C 168.339 37.333,168.167 37.466,168.167 35.399 L 168.167 33.667 164.579 33.667 L 160.992 33.667 160.893 34.159 C 160.801 34.618,160.738 34.654,159.939 34.700 C 159.197 34.743,159.076 34.800,159.030 35.125 C 158.992 35.396,158.865 35.500,158.572 35.500 C 158.233 35.500,158.167 35.582,158.167 36.000 C 158.167 36.444,158.111 36.500,157.667 36.500 L 157.167 36.500 157.167 35.083 L 157.167 33.667 155.333 33.667 L 153.500 33.667 153.500 47.500 M171.000 47.500 L 171.000 61.333 172.833 61.333 L 174.667 61.333 174.667 47.500 L 174.667 33.667 172.833 33.667 L 171.000 33.667 171.000 47.500 M181.167 53.000 L 181.167 72.333 183.000 72.333 L 184.833 72.333 184.833 65.264 L 184.833 58.196 185.326 58.382 C 185.615 58.491,185.839 58.709,185.868 58.909 C 185.909 59.195,186.057 59.258,186.792 59.300 C 187.638 59.349,187.667 59.367,187.667 59.842 C 187.667 60.277,187.724 60.333,188.167 60.333 C 188.582 60.333,188.667 60.400,188.667 60.729 C 188.667 61.209,189.131 61.333,190.919 61.333 C 192.072 61.333,192.136 61.353,192.235 61.750 L 192.340 62.167 195.156 62.167 C 198.216 62.167,198.500 62.123,198.500 61.649 C 198.500 61.370,198.633 61.333,199.653 61.333 C 201.068 61.333,201.333 61.240,201.333 60.741 C 201.333 60.388,201.416 60.346,202.208 60.300 C 203.024 60.253,203.087 60.219,203.136 59.792 C 203.180 59.408,203.268 59.333,203.678 59.333 C 204.088 59.333,204.167 59.266,204.167 58.917 C 204.167 58.583,204.250 58.500,204.583 58.500 C 204.935 58.500,205.000 58.422,205.000 58.000 C 205.000 57.556,205.056 57.500,205.500 57.500 C 205.908 57.500,206.000 57.431,206.000 57.123 C 206.000 56.892,206.145 56.682,206.375 56.581 C 206.711 56.434,206.755 56.281,206.799 55.125 L 206.847 53.833 207.340 53.833 L 207.833 53.833 207.833 52.011 L 207.833 50.189 208.292 50.136 L 208.750 50.083 208.796 47.455 L 208.842 44.827 208.343 44.727 L 207.844 44.627 207.797 42.855 L 207.750 41.083 207.292 41.031 C 206.854 40.980,206.833 40.936,206.833 40.072 C 206.833 39.217,206.810 39.167,206.417 39.167 C 206.047 39.167,206.000 39.097,205.997 38.542 C 205.994 37.798,205.865 37.560,205.417 37.476 C 205.197 37.435,205.065 37.258,205.031 36.957 C 204.989 36.598,204.890 36.500,204.572 36.500 C 204.332 36.500,204.167 36.403,204.167 36.262 C 204.167 35.829,203.658 35.500,202.988 35.500 C 202.401 35.500,202.333 35.457,202.333 35.083 C 202.333 34.690,202.283 34.667,201.428 34.667 C 200.564 34.667,200.520 34.646,200.469 34.208 L 200.417 33.750 194.958 33.706 L 189.500 33.662 189.500 34.164 C 189.500 34.662,189.492 34.667,188.583 34.667 C 187.717 34.667,187.667 34.689,187.667 35.083 C 187.667 35.435,187.589 35.500,187.167 35.500 C 186.722 35.500,186.667 35.556,186.667 36.000 C 186.667 36.422,186.602 36.500,186.250 36.500 C 185.917 36.500,185.833 36.583,185.833 36.917 C 185.833 37.269,185.756 37.333,185.333 37.333 L 184.833 37.333 184.833 35.500 L 184.833 33.667 183.000 33.667 L 181.167 33.667 181.167 53.000 M197.833 37.750 C 197.833 38.144,197.883 38.167,198.750 38.167 C 199.657 38.167,199.667 38.172,199.667 38.667 C 199.667 39.089,199.731 39.167,200.083 39.167 C 200.417 39.167,200.500 39.250,200.500 39.583 C 200.500 39.935,200.578 40.000,201.000 40.000 C 201.444 40.000,201.500 40.056,201.500 40.500 C 201.500 40.915,201.567 41.000,201.895 41.000 C 202.243 41.000,202.303 41.099,202.401 41.832 C 202.494 42.533,202.575 42.679,202.922 42.766 C 203.296 42.860,203.333 42.952,203.333 43.768 C 203.333 44.615,203.357 44.667,203.750 44.667 L 204.167 44.667 204.167 47.500 L 204.167 50.333 203.750 50.333 C 203.341 50.333,203.333 50.356,203.333 51.656 C 203.333 52.974,203.332 52.978,202.875 53.031 C 202.518 53.072,202.405 53.182,202.365 53.531 C 202.329 53.842,202.203 53.995,201.955 54.031 C 201.733 54.064,201.560 54.241,201.500 54.500 C 201.439 54.763,201.268 54.936,201.035 54.970 C 200.809 55.003,200.628 55.179,200.566 55.428 C 200.493 55.716,200.348 55.833,200.065 55.833 C 199.760 55.833,199.667 55.923,199.667 56.220 C 199.667 56.555,199.551 56.626,198.792 56.761 C 198.068 56.890,197.907 56.982,197.863 57.292 C 197.810 57.666,197.806 57.667,194.488 57.667 L 191.167 57.667 191.167 57.268 C 191.167 56.805,190.895 56.667,189.986 56.667 C 189.401 56.667,189.333 56.624,189.333 56.250 C 189.333 55.917,189.250 55.833,188.917 55.833 C 188.582 55.833,188.500 55.750,188.500 55.413 C 188.500 55.078,188.397 54.971,188.000 54.892 C 187.613 54.814,187.500 54.702,187.500 54.396 C 187.500 54.085,187.411 54.000,187.083 54.000 C 186.710 54.000,186.667 53.932,186.667 53.347 C 186.667 52.439,186.528 52.167,186.066 52.167 C 185.676 52.167,185.667 52.133,185.667 50.750 C 185.667 49.350,185.662 49.333,185.250 49.333 C 184.633 49.333,184.596 46.683,185.208 46.415 C 185.557 46.262,185.587 46.131,185.631 44.552 L 185.678 42.854 186.131 42.802 C 186.551 42.754,186.587 42.688,186.634 41.875 C 186.680 41.071,186.717 41.000,187.092 41.000 C 187.434 41.000,187.500 40.919,187.500 40.500 C 187.500 40.056,187.556 40.000,188.000 40.000 C 188.422 40.000,188.500 39.935,188.500 39.583 C 188.500 39.199,188.560 39.167,189.264 39.167 C 189.958 39.167,190.046 39.121,190.215 38.674 C 190.378 38.241,190.492 38.176,191.159 38.133 C 191.758 38.094,191.951 38.005,192.081 37.708 C 192.242 37.341,192.302 37.333,195.040 37.333 L 197.833 37.333 197.833 37.750 M389.500 40.500 C 389.500 40.922,389.565 41.000,389.917 41.000 C 390.250 41.000,390.333 41.083,390.333 41.417 C 390.333 41.769,390.411 41.833,390.833 41.833 L 391.333 41.833 391.333 42.833 L 391.333 43.833 386.667 43.833 L 382.000 43.833 382.000 43.351 C 382.000 42.978,382.093 42.846,382.411 42.766 C 382.758 42.679,382.840 42.533,382.933 41.832 C 383.040 41.025,383.059 41.000,383.591 41.000 C 384.340 41.000,384.667 40.851,384.667 40.510 C 384.667 40.029,384.808 40.000,387.194 40.000 L 389.500 40.000 389.500 40.500 M279.833 47.500 L 279.833 52.167 275.167 52.167 L 270.500 52.167 270.500 47.500 L 270.500 42.833 275.167 42.833 L 279.833 42.833 279.833 47.500 M341.500 50.627 C 341.500 50.945,341.384 51.139,341.125 51.252 C 340.826 51.383,340.740 51.574,340.700 52.198 C 340.654 52.908,340.608 52.984,340.200 53.031 C 339.849 53.072,339.738 53.184,339.697 53.542 C 339.656 53.902,339.558 54.000,339.239 54.000 C 338.917 54.000,338.833 54.086,338.833 54.417 L 338.833 54.833 336.521 54.833 L 334.210 54.833 334.099 54.002 C 334.006 53.300,333.925 53.154,333.578 53.067 C 332.949 52.909,332.987 52.043,333.625 51.969 C 333.946 51.932,334.099 51.809,334.135 51.557 C 334.166 51.339,334.345 51.158,334.593 51.096 C 334.888 51.022,335.000 50.880,335.000 50.580 L 335.000 50.167 338.250 50.167 L 341.500 50.167 341.500 50.627 " stroke="none" fill="#fcfcfc" fill-rule="evenodd"></path><path id="path1" d="M62.417 23.009 C 61.777 23.312,61.099 23.325,45.831 23.329 C 30.454 23.333,29.891 23.344,29.314 23.653 C 28.986 23.829,28.406 24.057,28.026 24.160 C 27.271 24.363,25.167 26.297,25.167 26.788 C 25.167 26.933,24.960 27.471,24.708 27.984 L 24.250 28.917 24.167 45.774 C 24.088 61.588,24.065 62.652,23.789 62.957 C 23.520 63.254,23.498 63.676,23.539 67.766 L 23.583 72.250 24.042 72.303 C 24.499 72.355,24.500 72.359,24.500 73.678 C 24.500 74.970,24.509 75.000,24.908 75.000 C 25.283 75.000,25.320 75.071,25.366 75.875 C 25.413 76.691,25.448 76.754,25.875 76.803 C 26.287 76.850,26.333 76.921,26.333 77.497 C 26.333 78.343,26.471 78.667,26.830 78.667 C 27.024 78.667,27.159 78.837,27.225 79.167 C 27.304 79.564,27.412 79.667,27.746 79.667 C 28.085 79.667,28.167 79.749,28.167 80.087 C 28.167 80.422,28.270 80.529,28.667 80.608 C 29.054 80.686,29.167 80.798,29.167 81.104 C 29.167 81.415,29.256 81.500,29.583 81.500 C 29.918 81.500,30.000 81.583,30.000 81.921 C 30.000 82.248,30.103 82.362,30.467 82.435 C 30.724 82.487,31.004 82.690,31.092 82.889 C 31.216 83.173,31.418 83.261,32.031 83.300 C 32.741 83.346,32.818 83.392,32.865 83.800 C 32.913 84.217,32.980 84.254,33.792 84.300 C 34.595 84.347,34.667 84.384,34.667 84.759 C 34.667 85.158,34.696 85.167,36.000 85.167 C 37.074 85.167,37.333 85.215,37.333 85.417 C 37.333 85.634,38.056 85.667,42.833 85.667 C 47.611 85.667,48.333 85.634,48.333 85.417 C 48.333 85.214,48.602 85.167,49.750 85.167 C 51.142 85.167,51.167 85.160,51.167 84.759 C 51.167 84.384,51.238 84.347,52.042 84.300 C 52.854 84.254,52.920 84.218,52.969 83.800 C 53.017 83.383,53.084 83.346,53.885 83.300 C 54.629 83.257,54.757 83.199,54.802 82.885 C 54.838 82.630,54.988 82.505,55.302 82.468 C 55.651 82.428,55.762 82.315,55.803 81.958 C 55.844 81.598,55.942 81.500,56.261 81.500 C 56.580 81.500,56.667 81.413,56.667 81.094 C 56.667 80.776,56.765 80.677,57.125 80.636 C 57.485 80.595,57.595 80.485,57.636 80.125 C 57.677 79.765,57.776 79.667,58.094 79.667 C 58.416 79.667,58.500 79.580,58.500 79.250 C 58.500 78.960,58.591 78.833,58.800 78.833 C 59.293 78.833,59.500 78.479,59.500 77.633 C 59.500 76.891,59.530 76.833,59.917 76.833 C 60.245 76.833,60.333 76.749,60.333 76.435 C 60.333 76.155,60.451 76.007,60.728 75.937 C 61.155 75.830,61.328 75.240,61.331 73.875 C 61.333 73.231,61.371 73.167,61.750 73.167 L 62.167 73.167 62.167 70.917 C 62.167 69.078,62.210 68.667,62.405 68.667 C 63.079 68.667,63.167 68.261,63.167 65.158 L 63.167 62.173 66.792 62.128 C 70.392 62.084,70.417 62.081,70.469 61.714 C 70.519 61.362,70.607 61.342,72.303 61.297 L 74.083 61.250 74.136 60.792 C 74.188 60.337,74.199 60.333,75.442 60.333 C 76.677 60.333,76.698 60.326,76.881 59.841 C 77.045 59.408,77.158 59.343,77.825 59.299 C 78.466 59.258,78.592 59.192,78.637 58.875 C 78.678 58.584,78.799 58.500,79.178 58.500 C 79.610 58.500,79.667 58.442,79.667 58.000 C 79.667 57.556,79.722 57.500,80.167 57.500 C 80.589 57.500,80.667 57.435,80.667 57.083 C 80.667 56.750,80.750 56.667,81.083 56.667 C 81.435 56.667,81.500 56.589,81.500 56.167 C 81.500 55.722,81.556 55.667,82.000 55.667 C 82.422 55.667,82.500 55.602,82.500 55.250 C 82.500 54.917,82.583 54.833,82.917 54.833 C 83.269 54.833,83.333 54.756,83.333 54.333 C 83.333 53.963,83.411 53.833,83.633 53.833 C 84.113 53.833,84.333 53.485,84.333 52.728 C 84.333 52.082,84.372 52.018,84.792 51.969 C 85.218 51.920,85.253 51.857,85.300 51.052 C 85.343 50.307,85.401 50.180,85.717 50.135 C 86.053 50.088,86.087 49.978,86.132 48.792 C 86.168 47.825,86.239 47.500,86.412 47.500 C 87.122 47.500,87.167 47.198,87.167 42.355 C 87.167 37.559,87.135 37.333,86.467 37.333 C 86.199 37.333,86.167 37.164,86.167 35.762 C 86.167 34.246,85.987 33.667,85.516 33.667 C 85.446 33.667,85.320 33.310,85.236 32.875 C 85.126 32.306,84.980 32.038,84.716 31.922 C 84.503 31.829,84.328 31.583,84.299 31.339 C 84.262 31.020,84.140 30.904,83.800 30.865 C 83.392 30.818,83.346 30.741,83.300 30.031 C 83.258 29.377,83.191 29.242,82.891 29.199 C 82.673 29.168,82.491 28.988,82.430 28.743 C 82.369 28.500,82.166 28.298,81.924 28.237 C 81.678 28.175,81.499 27.994,81.468 27.776 C 81.436 27.551,81.277 27.397,81.042 27.363 C 80.835 27.334,80.667 27.208,80.667 27.084 C 80.667 26.664,80.152 26.333,79.499 26.333 C 78.921 26.333,78.850 26.287,78.803 25.875 C 78.762 25.520,78.651 25.405,78.307 25.365 C 77.999 25.330,77.834 25.191,77.762 24.907 C 77.671 24.545,77.571 24.500,76.842 24.500 C 76.125 24.500,76.017 24.454,75.970 24.132 C 75.907 23.699,75.453 23.540,74.212 23.517 C 73.427 23.502,73.329 23.458,73.235 23.083 L 73.131 22.667 68.107 22.680 C 63.541 22.692,63.023 22.722,62.417 23.009 M62.041 34.790 L 62.500 35.229 62.500 46.039 C 62.500 54.901,62.459 56.931,62.270 57.300 C 62.144 57.547,61.985 58.005,61.918 58.318 C 61.808 58.828,60.761 60.506,60.471 60.635 C 60.407 60.664,60.106 60.907,59.802 61.175 C 59.499 61.443,58.994 61.748,58.680 61.853 C 58.367 61.958,57.842 62.203,57.514 62.397 C 56.925 62.745,56.762 62.751,46.249 62.808 L 35.581 62.865 35.249 62.499 C 34.934 62.151,34.914 61.859,34.874 56.774 C 34.827 50.874,34.852 50.703,35.794 50.424 L 36.333 50.264 36.333 42.882 L 36.333 35.500 43.313 35.500 L 50.293 35.500 50.502 34.996 C 50.855 34.143,50.875 34.141,56.416 34.249 L 61.583 34.350 62.041 34.790 " stroke="none" fill="#29ccf6" fill-rule="evenodd"></path><path id="path2" d="M38.333 0.243 C 38.333 0.433,38.030 0.497,36.958 0.535 C 35.596 0.583,35.583 0.588,35.531 1.042 C 35.480 1.479,35.436 1.500,34.572 1.500 C 33.717 1.500,33.667 1.523,33.667 1.917 C 33.667 2.290,33.599 2.333,33.014 2.333 C 32.105 2.333,31.833 2.472,31.833 2.934 C 31.833 3.249,31.745 3.333,31.417 3.333 C 31.083 3.333,31.000 3.417,31.000 3.750 C 31.000 4.102,30.922 4.167,30.500 4.167 C 30.056 4.167,30.000 4.222,30.000 4.667 C 30.000 5.089,29.935 5.167,29.583 5.167 C 29.250 5.167,29.167 5.250,29.167 5.583 C 29.167 5.935,29.089 6.000,28.667 6.000 C 28.225 6.000,28.167 6.057,28.167 6.489 C 28.167 6.898,28.092 6.986,27.708 7.031 C 27.348 7.072,27.239 7.182,27.197 7.542 C 27.161 7.855,27.048 8.000,26.840 8.000 C 26.480 8.000,26.333 8.317,26.333 9.097 C 26.333 9.480,26.255 9.667,26.095 9.667 C 25.667 9.667,25.333 10.175,25.333 10.827 C 25.333 11.367,25.270 11.480,24.917 11.568 C 24.504 11.672,24.500 11.691,24.500 13.492 L 24.500 15.311 24.042 15.364 L 23.583 15.417 23.539 19.458 L 23.494 23.500 20.435 23.500 C 16.804 23.500,16.366 23.563,16.230 24.105 C 16.133 24.490,16.087 24.500,14.315 24.500 L 12.500 24.500 12.500 24.917 C 12.500 25.295,12.436 25.334,11.792 25.335 C 10.373 25.339,9.833 25.505,9.833 25.938 C 9.833 26.287,9.756 26.333,9.180 26.333 C 8.318 26.333,8.000 26.470,8.000 26.840 C 8.000 27.048,7.855 27.161,7.542 27.197 C 7.182 27.239,7.072 27.348,7.031 27.708 C 6.986 28.092,6.898 28.167,6.489 28.167 C 6.079 28.167,6.000 28.234,6.000 28.583 C 6.000 28.917,5.917 29.000,5.583 29.000 C 5.231 29.000,5.167 29.078,5.167 29.500 C 5.167 29.944,5.111 30.000,4.667 30.000 C 4.244 30.000,4.167 30.065,4.167 30.417 C 4.167 30.750,4.083 30.833,3.750 30.833 C 3.400 30.833,3.333 30.912,3.333 31.322 C 3.333 31.732,3.259 31.820,2.875 31.864 C 2.518 31.905,2.405 32.016,2.365 32.365 C 2.329 32.678,2.204 32.828,1.948 32.865 C 1.634 32.910,1.576 33.037,1.533 33.792 C 1.493 34.494,1.425 34.667,1.191 34.667 C 0.666 34.667,0.500 35.034,0.500 36.200 C 0.500 37.096,0.448 37.333,0.250 37.333 C 0.032 37.333,0.000 38.157,0.000 43.750 C 0.000 49.343,0.032 50.167,0.250 50.167 C 0.442 50.167,0.500 50.380,0.500 51.083 C 0.500 51.991,0.505 52.000,1.000 52.000 C 1.495 52.000,1.500 52.009,1.500 52.917 C 1.500 53.783,1.523 53.833,1.917 53.833 C 2.290 53.833,2.333 53.901,2.333 54.486 C 2.333 55.395,2.472 55.667,2.934 55.667 C 3.267 55.667,3.333 55.750,3.333 56.167 C 3.333 56.589,3.398 56.667,3.750 56.667 C 4.083 56.667,4.167 56.750,4.167 57.083 C 4.167 57.435,4.244 57.500,4.667 57.500 C 5.111 57.500,5.167 57.556,5.167 58.000 C 5.167 58.418,5.233 58.500,5.572 58.500 C 5.865 58.500,5.992 58.604,6.030 58.875 C 6.068 59.144,6.213 59.265,6.542 59.303 C 6.845 59.338,7.000 59.453,7.000 59.644 C 7.000 60.113,7.354 60.333,8.106 60.333 C 8.751 60.333,8.816 60.372,8.864 60.792 C 8.913 61.219,8.976 61.253,9.792 61.300 C 10.595 61.347,10.667 61.384,10.667 61.759 C 10.667 62.159,10.692 62.167,12.072 62.167 L 13.478 62.167 13.531 62.625 L 13.583 63.083 18.489 63.128 C 21.794 63.157,23.453 63.114,23.572 62.994 C 23.695 62.872,23.776 57.435,23.833 45.533 L 23.917 28.250 24.532 27.083 C 25.237 25.747,26.835 24.086,27.586 23.908 C 27.860 23.843,28.346 23.631,28.667 23.437 C 29.172 23.131,29.508 23.083,31.167 23.083 C 32.221 23.083,39.571 23.111,47.500 23.144 C 61.105 23.201,61.952 23.187,62.542 22.905 L 63.167 22.605 63.167 18.733 C 63.167 14.494,63.145 14.333,62.572 14.333 C 62.196 14.333,62.178 14.277,62.132 12.958 C 62.087 11.686,62.056 11.579,61.717 11.531 C 61.401 11.486,61.343 11.360,61.300 10.615 C 61.254 9.814,61.217 9.746,60.800 9.698 C 60.383 9.650,60.346 9.582,60.300 8.781 C 60.257 8.030,60.201 7.910,59.875 7.863 C 59.604 7.825,59.500 7.698,59.500 7.405 C 59.500 7.068,59.418 7.000,59.009 7.000 C 58.542 7.000,58.516 6.962,58.467 6.210 C 58.424 5.536,58.349 5.387,57.958 5.201 C 57.702 5.078,57.500 4.846,57.500 4.673 C 57.500 4.429,57.325 4.341,56.667 4.250 C 55.929 4.149,55.833 4.089,55.833 3.734 C 55.833 3.402,55.750 3.333,55.344 3.333 C 54.935 3.333,54.847 3.259,54.803 2.875 C 54.762 2.518,54.651 2.405,54.302 2.365 C 53.988 2.329,53.838 2.204,53.802 1.948 C 53.754 1.614,53.643 1.579,52.458 1.535 L 51.167 1.486 51.167 0.993 L 51.167 0.500 49.750 0.500 C 48.602 0.500,48.333 0.453,48.333 0.250 C 48.333 0.033,47.667 0.000,43.333 0.000 C 39.062 0.000,38.333 0.035,38.333 0.243 M54.197 34.458 L 51.144 34.508 50.744 34.962 L 50.344 35.417 50.339 42.875 L 50.333 50.333 43.351 50.333 L 36.369 50.333 35.851 50.817 L 35.333 51.300 35.333 56.465 C 35.333 61.160,35.360 61.663,35.629 61.994 L 35.924 62.359 46.420 62.455 C 56.701 62.549,56.930 62.544,57.583 62.216 C 57.950 62.031,58.438 61.833,58.667 61.775 C 58.896 61.718,59.337 61.444,59.648 61.168 C 59.958 60.892,60.262 60.667,60.323 60.667 C 60.509 60.667,61.833 58.702,61.833 58.427 C 61.833 58.286,61.983 57.776,62.167 57.293 C 62.487 56.451,62.500 56.012,62.500 45.942 L 62.500 35.467 61.933 34.900 L 61.367 34.333 59.308 34.371 C 58.176 34.392,55.876 34.431,54.197 34.458 " stroke="none" fill="#f22288" fill-rule="evenodd"></path><path id="path3" d="" stroke="none" fill="#bcbc100" fill-rule="evenodd"></path><path id="path4" d="" stroke="none" fill="#bcbc100" fill-rule="evenodd"></path></g></svg>